<mxfile host="app.diagrams.net" modified="2023-10-30T16:50:03.547Z" agent="Mozilla/5.0 (X11; Ubuntu; Linux x86_64; rv:109.0) Gecko/20100101 Firefox/119.0" etag="OcXnHVicb2VBDcfBeK21" version="22.0.8" type="device">
  <diagram id="C5RBs43oDa-KdzZeNtuy" name="Page-1">
    <mxGraphModel dx="2060" dy="1970" grid="1" gridSize="10" guides="1" tooltips="1" connect="1" arrows="1" fold="1" page="1" pageScale="1" pageWidth="827" pageHeight="1169" math="0" shadow="0">
      <root>
        <mxCell id="WIyWlLk6GJQsqaUBKTNV-0" />
        <mxCell id="WIyWlLk6GJQsqaUBKTNV-1" parent="WIyWlLk6GJQsqaUBKTNV-0" />
        <mxCell id="zkfFHV4jXpPFQw0GAbJ--0" value="Cloth" style="swimlane;fontStyle=0;align=center;verticalAlign=top;childLayout=stackLayout;horizontal=1;startSize=26;horizontalStack=0;resizeParent=1;resizeLast=0;collapsible=1;marginBottom=0;rounded=0;shadow=0;strokeWidth=1;" parent="WIyWlLk6GJQsqaUBKTNV-1" vertex="1">
          <mxGeometry x="590" y="-800" width="180" height="270" as="geometry">
            <mxRectangle x="230" y="140" width="160" height="26" as="alternateBounds" />
          </mxGeometry>
        </mxCell>
        <mxCell id="zkfFHV4jXpPFQw0GAbJ--1" value="ID" style="text;align=left;verticalAlign=top;spacingLeft=4;spacingRight=4;overflow=hidden;rotatable=0;points=[[0,0.5],[1,0.5]];portConstraint=eastwest;fontStyle=3" parent="zkfFHV4jXpPFQw0GAbJ--0" vertex="1">
          <mxGeometry y="26" width="180" height="26" as="geometry" />
        </mxCell>
        <mxCell id="3LB6HJnX1jqJlk9QY9SR-4" value="Name" style="text;align=left;verticalAlign=top;spacingLeft=4;spacingRight=4;overflow=hidden;rotatable=0;points=[[0,0.5],[1,0.5]];portConstraint=eastwest;rounded=0;shadow=0;html=0;" vertex="1" parent="zkfFHV4jXpPFQw0GAbJ--0">
          <mxGeometry y="52" width="180" height="30" as="geometry" />
        </mxCell>
        <mxCell id="3LB6HJnX1jqJlk9QY9SR-3" value="IsAdult" style="text;align=left;verticalAlign=top;spacingLeft=4;spacingRight=4;overflow=hidden;rotatable=0;points=[[0,0.5],[1,0.5]];portConstraint=eastwest;rounded=0;shadow=0;html=0;" vertex="1" parent="zkfFHV4jXpPFQw0GAbJ--0">
          <mxGeometry y="82" width="180" height="30" as="geometry" />
        </mxCell>
        <mxCell id="zkfFHV4jXpPFQw0GAbJ--5" value="Size" style="text;align=left;verticalAlign=top;spacingLeft=4;spacingRight=4;overflow=hidden;rotatable=0;points=[[0,0.5],[1,0.5]];portConstraint=eastwest;" parent="zkfFHV4jXpPFQw0GAbJ--0" vertex="1">
          <mxGeometry y="112" width="180" height="26" as="geometry" />
        </mxCell>
        <mxCell id="zkfFHV4jXpPFQw0GAbJ--2" value="Gender : Gender" style="text;align=left;verticalAlign=top;spacingLeft=4;spacingRight=4;overflow=hidden;rotatable=0;points=[[0,0.5],[1,0.5]];portConstraint=eastwest;rounded=0;shadow=0;html=0;" parent="zkfFHV4jXpPFQw0GAbJ--0" vertex="1">
          <mxGeometry y="138" width="180" height="26" as="geometry" />
        </mxCell>
        <mxCell id="3LB6HJnX1jqJlk9QY9SR-0" value="Quality : Quality" style="text;align=left;verticalAlign=top;spacingLeft=4;spacingRight=4;overflow=hidden;rotatable=0;points=[[0,0.5],[1,0.5]];portConstraint=eastwest;" vertex="1" parent="zkfFHV4jXpPFQw0GAbJ--0">
          <mxGeometry y="164" width="180" height="26" as="geometry" />
        </mxCell>
        <mxCell id="3LB6HJnX1jqJlk9QY9SR-2" value="Color : Color" style="text;align=left;verticalAlign=top;spacingLeft=4;spacingRight=4;overflow=hidden;rotatable=0;points=[[0,0.5],[1,0.5]];portConstraint=eastwest;rounded=0;shadow=0;html=0;" vertex="1" parent="zkfFHV4jXpPFQw0GAbJ--0">
          <mxGeometry y="190" width="180" height="30" as="geometry" />
        </mxCell>
        <mxCell id="zkfFHV4jXpPFQw0GAbJ--3" value="Picture" style="text;align=left;verticalAlign=top;spacingLeft=4;spacingRight=4;overflow=hidden;rotatable=0;points=[[0,0.5],[1,0.5]];portConstraint=eastwest;rounded=0;shadow=0;html=0;" parent="zkfFHV4jXpPFQw0GAbJ--0" vertex="1">
          <mxGeometry y="220" width="180" height="30" as="geometry" />
        </mxCell>
        <mxCell id="zkfFHV4jXpPFQw0GAbJ--13" value="BottomWear" style="swimlane;fontStyle=0;align=center;verticalAlign=top;childLayout=stackLayout;horizontal=1;startSize=26;horizontalStack=0;resizeParent=1;resizeLast=0;collapsible=1;marginBottom=0;rounded=0;shadow=0;strokeWidth=1;" parent="WIyWlLk6GJQsqaUBKTNV-1" vertex="1">
          <mxGeometry x="1160" y="-1090" width="160" height="78" as="geometry">
            <mxRectangle x="340" y="380" width="170" height="26" as="alternateBounds" />
          </mxGeometry>
        </mxCell>
        <mxCell id="3LB6HJnX1jqJlk9QY9SR-8" value="ExtraColor" style="text;align=left;verticalAlign=top;spacingLeft=4;spacingRight=4;overflow=hidden;rotatable=0;points=[[0,0.5],[1,0.5]];portConstraint=eastwest;" vertex="1" parent="zkfFHV4jXpPFQw0GAbJ--13">
          <mxGeometry y="26" width="160" height="26" as="geometry" />
        </mxCell>
        <mxCell id="zkfFHV4jXpPFQw0GAbJ--14" value="Length" style="text;align=left;verticalAlign=top;spacingLeft=4;spacingRight=4;overflow=hidden;rotatable=0;points=[[0,0.5],[1,0.5]];portConstraint=eastwest;" parent="zkfFHV4jXpPFQw0GAbJ--13" vertex="1">
          <mxGeometry y="52" width="160" height="26" as="geometry" />
        </mxCell>
        <mxCell id="zkfFHV4jXpPFQw0GAbJ--17" value="Top" style="swimlane;fontStyle=0;align=center;verticalAlign=top;childLayout=stackLayout;horizontal=1;startSize=26;horizontalStack=0;resizeParent=1;resizeLast=0;collapsible=1;marginBottom=0;rounded=0;shadow=0;strokeWidth=1;movable=1;resizable=1;rotatable=1;deletable=1;editable=1;locked=0;connectable=1;" parent="WIyWlLk6GJQsqaUBKTNV-1" vertex="1">
          <mxGeometry x="960" y="-1090" width="160" height="60" as="geometry">
            <mxRectangle x="550" y="140" width="160" height="26" as="alternateBounds" />
          </mxGeometry>
        </mxCell>
        <mxCell id="zkfFHV4jXpPFQw0GAbJ--18" value="SleeveLength" style="text;align=left;verticalAlign=top;spacingLeft=4;spacingRight=4;overflow=hidden;rotatable=0;points=[[0,0.5],[1,0.5]];portConstraint=eastwest;" parent="zkfFHV4jXpPFQw0GAbJ--17" vertex="1">
          <mxGeometry y="26" width="160" height="26" as="geometry" />
        </mxCell>
        <mxCell id="3LB6HJnX1jqJlk9QY9SR-14" value="" style="group" vertex="1" connectable="0" parent="WIyWlLk6GJQsqaUBKTNV-1">
          <mxGeometry x="485.08" y="138" width="167" height="150" as="geometry" />
        </mxCell>
        <mxCell id="3LB6HJnX1jqJlk9QY9SR-18" value="Dress" style="swimlane;fontStyle=0;align=center;verticalAlign=top;childLayout=stackLayout;horizontal=1;startSize=26;horizontalStack=0;resizeParent=1;resizeLast=0;collapsible=1;marginBottom=0;rounded=0;shadow=0;strokeWidth=1;" vertex="1" parent="WIyWlLk6GJQsqaUBKTNV-1">
          <mxGeometry x="570" y="-1090" width="160" height="60" as="geometry">
            <mxRectangle x="340" y="380" width="170" height="26" as="alternateBounds" />
          </mxGeometry>
        </mxCell>
        <mxCell id="3LB6HJnX1jqJlk9QY9SR-19" value="IsEmbroidered" style="text;align=left;verticalAlign=top;spacingLeft=4;spacingRight=4;overflow=hidden;rotatable=0;points=[[0,0.5],[1,0.5]];portConstraint=eastwest;" vertex="1" parent="3LB6HJnX1jqJlk9QY9SR-18">
          <mxGeometry y="26" width="160" height="26" as="geometry" />
        </mxCell>
        <mxCell id="3LB6HJnX1jqJlk9QY9SR-21" value="Scarf" style="swimlane;fontStyle=0;align=center;verticalAlign=top;childLayout=stackLayout;horizontal=1;startSize=26;horizontalStack=0;resizeParent=1;resizeLast=0;collapsible=1;marginBottom=0;rounded=0;shadow=0;strokeWidth=1;" vertex="1" parent="WIyWlLk6GJQsqaUBKTNV-1">
          <mxGeometry x="760" y="-1090" width="160" height="78" as="geometry">
            <mxRectangle x="340" y="380" width="170" height="26" as="alternateBounds" />
          </mxGeometry>
        </mxCell>
        <mxCell id="3LB6HJnX1jqJlk9QY9SR-22" value="IsEmbroidered" style="text;align=left;verticalAlign=top;spacingLeft=4;spacingRight=4;overflow=hidden;rotatable=0;points=[[0,0.5],[1,0.5]];portConstraint=eastwest;" vertex="1" parent="3LB6HJnX1jqJlk9QY9SR-21">
          <mxGeometry y="26" width="160" height="26" as="geometry" />
        </mxCell>
        <mxCell id="3LB6HJnX1jqJlk9QY9SR-23" value="HaveBeading" style="text;align=left;verticalAlign=top;spacingLeft=4;spacingRight=4;overflow=hidden;rotatable=0;points=[[0,0.5],[1,0.5]];portConstraint=eastwest;" vertex="1" parent="3LB6HJnX1jqJlk9QY9SR-21">
          <mxGeometry y="52" width="160" height="26" as="geometry" />
        </mxCell>
        <mxCell id="3LB6HJnX1jqJlk9QY9SR-24" value="FabricPiece" style="swimlane;fontStyle=0;align=center;verticalAlign=top;childLayout=stackLayout;horizontal=1;startSize=26;horizontalStack=0;resizeParent=1;resizeLast=0;collapsible=1;marginBottom=0;rounded=0;shadow=0;strokeWidth=1;" vertex="1" parent="WIyWlLk6GJQsqaUBKTNV-1">
          <mxGeometry x="180" y="-1090" width="160" height="60" as="geometry">
            <mxRectangle x="340" y="380" width="170" height="26" as="alternateBounds" />
          </mxGeometry>
        </mxCell>
        <mxCell id="3LB6HJnX1jqJlk9QY9SR-31" value="Extends" style="endArrow=block;endSize=16;endFill=0;html=1;rounded=0;movable=1;resizable=1;rotatable=1;deletable=1;editable=1;locked=0;connectable=1;entryX=0.147;entryY=0;entryDx=0;entryDy=0;entryPerimeter=0;exitX=0.5;exitY=1;exitDx=0;exitDy=0;" edge="1" parent="WIyWlLk6GJQsqaUBKTNV-1" source="3LB6HJnX1jqJlk9QY9SR-24" target="zkfFHV4jXpPFQw0GAbJ--0">
          <mxGeometry x="0.125" width="160" relative="1" as="geometry">
            <mxPoint x="700" y="-910" as="sourcePoint" />
            <mxPoint x="700" y="-580" as="targetPoint" />
            <Array as="points" />
            <mxPoint as="offset" />
          </mxGeometry>
        </mxCell>
        <mxCell id="3LB6HJnX1jqJlk9QY9SR-32" value="Belt" style="swimlane;fontStyle=0;align=center;verticalAlign=top;childLayout=stackLayout;horizontal=1;startSize=26;horizontalStack=0;resizeParent=1;resizeLast=0;collapsible=1;marginBottom=0;rounded=0;shadow=0;strokeWidth=1;" vertex="1" parent="WIyWlLk6GJQsqaUBKTNV-1">
          <mxGeometry x="380" y="-1090" width="160" height="60" as="geometry">
            <mxRectangle x="340" y="380" width="170" height="26" as="alternateBounds" />
          </mxGeometry>
        </mxCell>
        <mxCell id="3LB6HJnX1jqJlk9QY9SR-37" value="SellHistory" style="swimlane;fontStyle=0;align=center;verticalAlign=top;childLayout=stackLayout;horizontal=1;startSize=26;horizontalStack=0;resizeParent=1;resizeLast=0;collapsible=1;marginBottom=0;rounded=0;shadow=0;strokeWidth=1;" vertex="1" parent="WIyWlLk6GJQsqaUBKTNV-1">
          <mxGeometry x="1359.5" y="-450" width="150.5" height="160" as="geometry">
            <mxRectangle x="340" y="380" width="170" height="26" as="alternateBounds" />
          </mxGeometry>
        </mxCell>
        <mxCell id="3LB6HJnX1jqJlk9QY9SR-206" value="ID" style="text;align=left;verticalAlign=top;spacingLeft=4;spacingRight=4;overflow=hidden;rotatable=0;points=[[0,0.5],[1,0.5]];portConstraint=eastwest;fontStyle=3" vertex="1" parent="3LB6HJnX1jqJlk9QY9SR-37">
          <mxGeometry y="26" width="150.5" height="26" as="geometry" />
        </mxCell>
        <mxCell id="3LB6HJnX1jqJlk9QY9SR-148" value="OrderHistoryID" style="text;align=left;verticalAlign=top;spacingLeft=4;spacingRight=4;overflow=hidden;rotatable=0;points=[[0,0.5],[1,0.5]];portConstraint=eastwest;fontStyle=4" vertex="1" parent="3LB6HJnX1jqJlk9QY9SR-37">
          <mxGeometry y="52" width="150.5" height="26" as="geometry" />
        </mxCell>
        <mxCell id="3LB6HJnX1jqJlk9QY9SR-39" value="AmountSold" style="text;align=left;verticalAlign=top;spacingLeft=4;spacingRight=4;overflow=hidden;rotatable=0;points=[[0,0.5],[1,0.5]];portConstraint=eastwest;" vertex="1" parent="3LB6HJnX1jqJlk9QY9SR-37">
          <mxGeometry y="78" width="150.5" height="26" as="geometry" />
        </mxCell>
        <mxCell id="3LB6HJnX1jqJlk9QY9SR-55" value="SellingPrice" style="text;align=left;verticalAlign=top;spacingLeft=4;spacingRight=4;overflow=hidden;rotatable=0;points=[[0,0.5],[1,0.5]];portConstraint=eastwest;" vertex="1" parent="3LB6HJnX1jqJlk9QY9SR-37">
          <mxGeometry y="104" width="150.5" height="26" as="geometry" />
        </mxCell>
        <mxCell id="3LB6HJnX1jqJlk9QY9SR-56" value="DateSold" style="text;align=left;verticalAlign=top;spacingLeft=4;spacingRight=4;overflow=hidden;rotatable=0;points=[[0,0.5],[1,0.5]];portConstraint=eastwest;" vertex="1" parent="3LB6HJnX1jqJlk9QY9SR-37">
          <mxGeometry y="130" width="150.5" height="26" as="geometry" />
        </mxCell>
        <mxCell id="3LB6HJnX1jqJlk9QY9SR-40" value="OrderHistory" style="swimlane;fontStyle=0;align=center;verticalAlign=top;childLayout=stackLayout;horizontal=1;startSize=26;horizontalStack=0;resizeParent=1;resizeLast=0;collapsible=1;marginBottom=0;rounded=0;shadow=0;strokeWidth=1;" vertex="1" parent="WIyWlLk6GJQsqaUBKTNV-1">
          <mxGeometry x="1080.5" y="-450" width="179" height="240" as="geometry">
            <mxRectangle x="340" y="380" width="170" height="26" as="alternateBounds" />
          </mxGeometry>
        </mxCell>
        <mxCell id="3LB6HJnX1jqJlk9QY9SR-149" value="ID" style="text;align=left;verticalAlign=top;spacingLeft=4;spacingRight=4;overflow=hidden;rotatable=0;points=[[0,0.5],[1,0.5]];portConstraint=eastwest;fontStyle=3" vertex="1" parent="3LB6HJnX1jqJlk9QY9SR-40">
          <mxGeometry y="26" width="179" height="26" as="geometry" />
        </mxCell>
        <mxCell id="3LB6HJnX1jqJlk9QY9SR-41" value="ClothID" style="text;align=left;verticalAlign=top;spacingLeft=4;spacingRight=4;overflow=hidden;rotatable=0;points=[[0,0.5],[1,0.5]];portConstraint=eastwest;fontStyle=4" vertex="1" parent="3LB6HJnX1jqJlk9QY9SR-40">
          <mxGeometry y="52" width="179" height="26" as="geometry" />
        </mxCell>
        <mxCell id="3LB6HJnX1jqJlk9QY9SR-63" value="PersonID" style="text;align=left;verticalAlign=top;spacingLeft=4;spacingRight=4;overflow=hidden;rotatable=0;points=[[0,0.5],[1,0.5]];portConstraint=eastwest;fontStyle=4" vertex="1" parent="3LB6HJnX1jqJlk9QY9SR-40">
          <mxGeometry y="78" width="179" height="26" as="geometry" />
        </mxCell>
        <mxCell id="3LB6HJnX1jqJlk9QY9SR-62" value="AmountOrdered" style="text;align=left;verticalAlign=top;spacingLeft=4;spacingRight=4;overflow=hidden;rotatable=0;points=[[0,0.5],[1,0.5]];portConstraint=eastwest;" vertex="1" parent="3LB6HJnX1jqJlk9QY9SR-40">
          <mxGeometry y="104" width="179" height="26" as="geometry" />
        </mxCell>
        <mxCell id="3LB6HJnX1jqJlk9QY9SR-42" value="OrderedPrice" style="text;align=left;verticalAlign=top;spacingLeft=4;spacingRight=4;overflow=hidden;rotatable=0;points=[[0,0.5],[1,0.5]];portConstraint=eastwest;" vertex="1" parent="3LB6HJnX1jqJlk9QY9SR-40">
          <mxGeometry y="130" width="179" height="28" as="geometry" />
        </mxCell>
        <mxCell id="3LB6HJnX1jqJlk9QY9SR-64" value="ArrivalDate" style="text;align=left;verticalAlign=top;spacingLeft=4;spacingRight=4;overflow=hidden;rotatable=0;points=[[0,0.5],[1,0.5]];portConstraint=eastwest;" vertex="1" parent="3LB6HJnX1jqJlk9QY9SR-40">
          <mxGeometry y="158" width="179" height="26" as="geometry" />
        </mxCell>
        <mxCell id="3LB6HJnX1jqJlk9QY9SR-43" value="Reward" style="swimlane;fontStyle=0;align=center;verticalAlign=top;childLayout=stackLayout;horizontal=1;startSize=26;horizontalStack=0;resizeParent=1;resizeLast=0;collapsible=1;marginBottom=0;rounded=0;shadow=0;strokeWidth=1;" vertex="1" parent="WIyWlLk6GJQsqaUBKTNV-1">
          <mxGeometry x="1080.5" y="-160" width="180" height="136" as="geometry">
            <mxRectangle x="340" y="380" width="170" height="26" as="alternateBounds" />
          </mxGeometry>
        </mxCell>
        <mxCell id="3LB6HJnX1jqJlk9QY9SR-44" value="PersonID" style="text;align=left;verticalAlign=top;spacingLeft=4;spacingRight=4;overflow=hidden;rotatable=0;points=[[0,0.5],[1,0.5]];portConstraint=eastwest;fontStyle=7" vertex="1" parent="3LB6HJnX1jqJlk9QY9SR-43">
          <mxGeometry y="26" width="180" height="26" as="geometry" />
        </mxCell>
        <mxCell id="3LB6HJnX1jqJlk9QY9SR-45" value="AmountOfProfit" style="text;align=left;verticalAlign=top;spacingLeft=4;spacingRight=4;overflow=hidden;rotatable=0;points=[[0,0.5],[1,0.5]];portConstraint=eastwest;" vertex="1" parent="3LB6HJnX1jqJlk9QY9SR-43">
          <mxGeometry y="52" width="180" height="26" as="geometry" />
        </mxCell>
        <mxCell id="3LB6HJnX1jqJlk9QY9SR-46" value="Person" style="swimlane;fontStyle=0;align=center;verticalAlign=top;childLayout=stackLayout;horizontal=1;startSize=26;horizontalStack=0;resizeParent=1;resizeLast=0;collapsible=1;marginBottom=0;rounded=0;shadow=0;strokeWidth=1;" vertex="1" parent="WIyWlLk6GJQsqaUBKTNV-1">
          <mxGeometry x="585" y="-350" width="185" height="302" as="geometry">
            <mxRectangle x="340" y="380" width="170" height="26" as="alternateBounds" />
          </mxGeometry>
        </mxCell>
        <mxCell id="3LB6HJnX1jqJlk9QY9SR-47" value="ID" style="text;align=left;verticalAlign=top;spacingLeft=4;spacingRight=4;overflow=hidden;rotatable=0;points=[[0,0.5],[1,0.5]];portConstraint=eastwest;fontStyle=3" vertex="1" parent="3LB6HJnX1jqJlk9QY9SR-46">
          <mxGeometry y="26" width="185" height="26" as="geometry" />
        </mxCell>
        <mxCell id="3LB6HJnX1jqJlk9QY9SR-71" value="Role : Role" style="text;align=left;verticalAlign=top;spacingLeft=4;spacingRight=4;overflow=hidden;rotatable=0;points=[[0,0.5],[1,0.5]];portConstraint=eastwest;fontStyle=0" vertex="1" parent="3LB6HJnX1jqJlk9QY9SR-46">
          <mxGeometry y="52" width="185" height="32" as="geometry" />
        </mxCell>
        <mxCell id="3LB6HJnX1jqJlk9QY9SR-48" value="Email" style="text;align=left;verticalAlign=top;spacingLeft=4;spacingRight=4;overflow=hidden;rotatable=0;points=[[0,0.5],[1,0.5]];portConstraint=eastwest;" vertex="1" parent="3LB6HJnX1jqJlk9QY9SR-46">
          <mxGeometry y="84" width="185" height="26" as="geometry" />
        </mxCell>
        <mxCell id="3LB6HJnX1jqJlk9QY9SR-72" value="NameOfPerson" style="text;align=left;verticalAlign=top;spacingLeft=4;spacingRight=4;overflow=hidden;rotatable=0;points=[[0,0.5],[1,0.5]];portConstraint=eastwest;" vertex="1" parent="3LB6HJnX1jqJlk9QY9SR-46">
          <mxGeometry y="110" width="185" height="32" as="geometry" />
        </mxCell>
        <mxCell id="3LB6HJnX1jqJlk9QY9SR-73" value="PhoneNumber" style="text;align=left;verticalAlign=top;spacingLeft=4;spacingRight=4;overflow=hidden;rotatable=0;points=[[0,0.5],[1,0.5]];portConstraint=eastwest;" vertex="1" parent="3LB6HJnX1jqJlk9QY9SR-46">
          <mxGeometry y="142" width="185" height="32" as="geometry" />
        </mxCell>
        <mxCell id="3LB6HJnX1jqJlk9QY9SR-74" value="Gender" style="text;align=left;verticalAlign=top;spacingLeft=4;spacingRight=4;overflow=hidden;rotatable=0;points=[[0,0.5],[1,0.5]];portConstraint=eastwest;" vertex="1" parent="3LB6HJnX1jqJlk9QY9SR-46">
          <mxGeometry y="174" width="185" height="32" as="geometry" />
        </mxCell>
        <mxCell id="3LB6HJnX1jqJlk9QY9SR-78" value="HomeAddress" style="text;align=left;verticalAlign=top;spacingLeft=4;spacingRight=4;overflow=hidden;rotatable=0;points=[[0,0.5],[1,0.5]];portConstraint=eastwest;" vertex="1" parent="3LB6HJnX1jqJlk9QY9SR-46">
          <mxGeometry y="206" width="185" height="32" as="geometry" />
        </mxCell>
        <mxCell id="3LB6HJnX1jqJlk9QY9SR-77" value="PostalCode" style="text;align=left;verticalAlign=top;spacingLeft=4;spacingRight=4;overflow=hidden;rotatable=0;points=[[0,0.5],[1,0.5]];portConstraint=eastwest;" vertex="1" parent="3LB6HJnX1jqJlk9QY9SR-46">
          <mxGeometry y="238" width="185" height="32" as="geometry" />
        </mxCell>
        <mxCell id="3LB6HJnX1jqJlk9QY9SR-83" value="Province" style="text;align=left;verticalAlign=top;spacingLeft=4;spacingRight=4;overflow=hidden;rotatable=0;points=[[0,0.5],[1,0.5]];portConstraint=eastwest;" vertex="1" parent="3LB6HJnX1jqJlk9QY9SR-46">
          <mxGeometry y="270" width="185" height="32" as="geometry" />
        </mxCell>
        <mxCell id="3LB6HJnX1jqJlk9QY9SR-52" value="Role : Enum" style="swimlane;fontStyle=0;align=center;verticalAlign=top;childLayout=stackLayout;horizontal=1;startSize=26;horizontalStack=0;resizeParent=1;resizeLast=0;collapsible=1;marginBottom=0;rounded=0;shadow=0;strokeWidth=1;spacingBottom=6;fontSize=13;" vertex="1" parent="WIyWlLk6GJQsqaUBKTNV-1">
          <mxGeometry x="180" y="-250" width="160" height="158" as="geometry">
            <mxRectangle x="340" y="380" width="170" height="26" as="alternateBounds" />
          </mxGeometry>
        </mxCell>
        <mxCell id="3LB6HJnX1jqJlk9QY9SR-100" value="ShopOwner" style="text;align=left;verticalAlign=top;spacingLeft=4;spacingRight=4;overflow=hidden;rotatable=0;points=[[0,0.5],[1,0.5]];portConstraint=eastwest;" vertex="1" parent="3LB6HJnX1jqJlk9QY9SR-52">
          <mxGeometry y="26" width="160" height="32" as="geometry" />
        </mxCell>
        <mxCell id="3LB6HJnX1jqJlk9QY9SR-101" value="Staff" style="text;align=left;verticalAlign=top;spacingLeft=4;spacingRight=4;overflow=hidden;rotatable=0;points=[[0,0.5],[1,0.5]];portConstraint=eastwest;" vertex="1" parent="3LB6HJnX1jqJlk9QY9SR-52">
          <mxGeometry y="58" width="160" height="32" as="geometry" />
        </mxCell>
        <mxCell id="3LB6HJnX1jqJlk9QY9SR-102" value="Retailer" style="text;align=left;verticalAlign=top;spacingLeft=4;spacingRight=4;overflow=hidden;rotatable=0;points=[[0,0.5],[1,0.5]];portConstraint=eastwest;" vertex="1" parent="3LB6HJnX1jqJlk9QY9SR-52">
          <mxGeometry y="90" width="160" height="32" as="geometry" />
        </mxCell>
        <mxCell id="3LB6HJnX1jqJlk9QY9SR-90" value="Customer" style="text;align=left;verticalAlign=top;spacingLeft=4;spacingRight=4;overflow=hidden;rotatable=0;points=[[0,0.5],[1,0.5]];portConstraint=eastwest;" vertex="1" parent="3LB6HJnX1jqJlk9QY9SR-52">
          <mxGeometry y="122" width="160" height="32" as="geometry" />
        </mxCell>
        <mxCell id="3LB6HJnX1jqJlk9QY9SR-103" value="Gender  : Enum" style="swimlane;fontStyle=0;align=center;verticalAlign=top;childLayout=stackLayout;horizontal=1;startSize=26;horizontalStack=0;resizeParent=1;resizeLast=0;collapsible=1;marginBottom=0;rounded=0;shadow=0;strokeWidth=1;" vertex="1" parent="WIyWlLk6GJQsqaUBKTNV-1">
          <mxGeometry x="180" y="-920" width="160" height="154" as="geometry">
            <mxRectangle x="340" y="380" width="170" height="26" as="alternateBounds" />
          </mxGeometry>
        </mxCell>
        <mxCell id="3LB6HJnX1jqJlk9QY9SR-115" value="None" style="text;align=left;verticalAlign=top;spacingLeft=4;spacingRight=4;overflow=hidden;rotatable=0;points=[[0,0.5],[1,0.5]];portConstraint=eastwest;" vertex="1" parent="3LB6HJnX1jqJlk9QY9SR-103">
          <mxGeometry y="26" width="160" height="32" as="geometry" />
        </mxCell>
        <mxCell id="3LB6HJnX1jqJlk9QY9SR-116" value="Female" style="text;align=left;verticalAlign=top;spacingLeft=4;spacingRight=4;overflow=hidden;rotatable=0;points=[[0,0.5],[1,0.5]];portConstraint=eastwest;" vertex="1" parent="3LB6HJnX1jqJlk9QY9SR-103">
          <mxGeometry y="58" width="160" height="32" as="geometry" />
        </mxCell>
        <mxCell id="3LB6HJnX1jqJlk9QY9SR-117" value="Not specified" style="text;align=left;verticalAlign=top;spacingLeft=4;spacingRight=4;overflow=hidden;rotatable=0;points=[[0,0.5],[1,0.5]];portConstraint=eastwest;" vertex="1" parent="3LB6HJnX1jqJlk9QY9SR-103">
          <mxGeometry y="90" width="160" height="32" as="geometry" />
        </mxCell>
        <mxCell id="3LB6HJnX1jqJlk9QY9SR-114" value="Male" style="text;align=left;verticalAlign=top;spacingLeft=4;spacingRight=4;overflow=hidden;rotatable=0;points=[[0,0.5],[1,0.5]];portConstraint=eastwest;" vertex="1" parent="3LB6HJnX1jqJlk9QY9SR-103">
          <mxGeometry y="122" width="160" height="32" as="geometry" />
        </mxCell>
        <mxCell id="3LB6HJnX1jqJlk9QY9SR-118" value="Quality  : Enum" style="swimlane;fontStyle=0;align=center;verticalAlign=top;childLayout=stackLayout;horizontal=1;startSize=26;horizontalStack=0;resizeParent=1;resizeLast=0;collapsible=1;marginBottom=0;rounded=0;shadow=0;strokeWidth=1;" vertex="1" parent="WIyWlLk6GJQsqaUBKTNV-1">
          <mxGeometry x="180" y="-740" width="160" height="154" as="geometry">
            <mxRectangle x="340" y="380" width="170" height="26" as="alternateBounds" />
          </mxGeometry>
        </mxCell>
        <mxCell id="3LB6HJnX1jqJlk9QY9SR-119" value="None" style="text;align=left;verticalAlign=top;spacingLeft=4;spacingRight=4;overflow=hidden;rotatable=0;points=[[0,0.5],[1,0.5]];portConstraint=eastwest;" vertex="1" parent="3LB6HJnX1jqJlk9QY9SR-118">
          <mxGeometry y="26" width="160" height="32" as="geometry" />
        </mxCell>
        <mxCell id="3LB6HJnX1jqJlk9QY9SR-120" value="Expensive" style="text;align=left;verticalAlign=top;spacingLeft=4;spacingRight=4;overflow=hidden;rotatable=0;points=[[0,0.5],[1,0.5]];portConstraint=eastwest;" vertex="1" parent="3LB6HJnX1jqJlk9QY9SR-118">
          <mxGeometry y="58" width="160" height="32" as="geometry" />
        </mxCell>
        <mxCell id="3LB6HJnX1jqJlk9QY9SR-121" value="Cheap" style="text;align=left;verticalAlign=top;spacingLeft=4;spacingRight=4;overflow=hidden;rotatable=0;points=[[0,0.5],[1,0.5]];portConstraint=eastwest;" vertex="1" parent="3LB6HJnX1jqJlk9QY9SR-118">
          <mxGeometry y="90" width="160" height="32" as="geometry" />
        </mxCell>
        <mxCell id="3LB6HJnX1jqJlk9QY9SR-123" value="Color  : Enum" style="swimlane;fontStyle=0;align=center;verticalAlign=top;childLayout=stackLayout;horizontal=1;startSize=26;horizontalStack=0;resizeParent=1;resizeLast=0;collapsible=1;marginBottom=0;rounded=0;shadow=0;strokeWidth=1;" vertex="1" parent="WIyWlLk6GJQsqaUBKTNV-1">
          <mxGeometry x="180" y="-560" width="160" height="282" as="geometry">
            <mxRectangle x="340" y="380" width="170" height="26" as="alternateBounds" />
          </mxGeometry>
        </mxCell>
        <mxCell id="3LB6HJnX1jqJlk9QY9SR-124" value="None" style="text;align=left;verticalAlign=top;spacingLeft=4;spacingRight=4;overflow=hidden;rotatable=0;points=[[0,0.5],[1,0.5]];portConstraint=eastwest;" vertex="1" parent="3LB6HJnX1jqJlk9QY9SR-123">
          <mxGeometry y="26" width="160" height="32" as="geometry" />
        </mxCell>
        <mxCell id="3LB6HJnX1jqJlk9QY9SR-125" value="Blue" style="text;align=left;verticalAlign=top;spacingLeft=4;spacingRight=4;overflow=hidden;rotatable=0;points=[[0,0.5],[1,0.5]];portConstraint=eastwest;" vertex="1" parent="3LB6HJnX1jqJlk9QY9SR-123">
          <mxGeometry y="58" width="160" height="32" as="geometry" />
        </mxCell>
        <mxCell id="3LB6HJnX1jqJlk9QY9SR-126" value="Black" style="text;align=left;verticalAlign=top;spacingLeft=4;spacingRight=4;overflow=hidden;rotatable=0;points=[[0,0.5],[1,0.5]];portConstraint=eastwest;" vertex="1" parent="3LB6HJnX1jqJlk9QY9SR-123">
          <mxGeometry y="90" width="160" height="32" as="geometry" />
        </mxCell>
        <mxCell id="3LB6HJnX1jqJlk9QY9SR-127" value="White" style="text;align=left;verticalAlign=top;spacingLeft=4;spacingRight=4;overflow=hidden;rotatable=0;points=[[0,0.5],[1,0.5]];portConstraint=eastwest;" vertex="1" parent="3LB6HJnX1jqJlk9QY9SR-123">
          <mxGeometry y="122" width="160" height="32" as="geometry" />
        </mxCell>
        <mxCell id="3LB6HJnX1jqJlk9QY9SR-129" value="Green" style="text;align=left;verticalAlign=top;spacingLeft=4;spacingRight=4;overflow=hidden;rotatable=0;points=[[0,0.5],[1,0.5]];portConstraint=eastwest;" vertex="1" parent="3LB6HJnX1jqJlk9QY9SR-123">
          <mxGeometry y="154" width="160" height="32" as="geometry" />
        </mxCell>
        <mxCell id="3LB6HJnX1jqJlk9QY9SR-130" value="Yellow" style="text;align=left;verticalAlign=top;spacingLeft=4;spacingRight=4;overflow=hidden;rotatable=0;points=[[0,0.5],[1,0.5]];portConstraint=eastwest;" vertex="1" parent="3LB6HJnX1jqJlk9QY9SR-123">
          <mxGeometry y="186" width="160" height="32" as="geometry" />
        </mxCell>
        <mxCell id="3LB6HJnX1jqJlk9QY9SR-131" value="Red" style="text;align=left;verticalAlign=top;spacingLeft=4;spacingRight=4;overflow=hidden;rotatable=0;points=[[0,0.5],[1,0.5]];portConstraint=eastwest;" vertex="1" parent="3LB6HJnX1jqJlk9QY9SR-123">
          <mxGeometry y="218" width="160" height="32" as="geometry" />
        </mxCell>
        <mxCell id="3LB6HJnX1jqJlk9QY9SR-132" value="Pink" style="text;align=left;verticalAlign=top;spacingLeft=4;spacingRight=4;overflow=hidden;rotatable=0;points=[[0,0.5],[1,0.5]];portConstraint=eastwest;" vertex="1" parent="3LB6HJnX1jqJlk9QY9SR-123">
          <mxGeometry y="250" width="160" height="32" as="geometry" />
        </mxCell>
        <mxCell id="3LB6HJnX1jqJlk9QY9SR-135" value="Stock" style="swimlane;fontStyle=0;align=center;verticalAlign=top;childLayout=stackLayout;horizontal=1;startSize=26;horizontalStack=0;resizeParent=1;resizeLast=0;collapsible=1;marginBottom=0;rounded=0;shadow=0;strokeWidth=1;" vertex="1" parent="WIyWlLk6GJQsqaUBKTNV-1">
          <mxGeometry x="1080.5" y="-800" width="169" height="120" as="geometry">
            <mxRectangle x="340" y="380" width="170" height="26" as="alternateBounds" />
          </mxGeometry>
        </mxCell>
        <mxCell id="3LB6HJnX1jqJlk9QY9SR-143" value="ClothID" style="text;align=left;verticalAlign=top;spacingLeft=4;spacingRight=4;overflow=hidden;rotatable=0;points=[[0,0.5],[1,0.5]];portConstraint=eastwest;fontStyle=7" vertex="1" parent="3LB6HJnX1jqJlk9QY9SR-135">
          <mxGeometry y="26" width="169" height="28" as="geometry" />
        </mxCell>
        <mxCell id="3LB6HJnX1jqJlk9QY9SR-150" value="Amount" style="text;align=left;verticalAlign=top;spacingLeft=4;spacingRight=4;overflow=hidden;rotatable=0;points=[[0,0.5],[1,0.5]];portConstraint=eastwest;" vertex="1" parent="3LB6HJnX1jqJlk9QY9SR-135">
          <mxGeometry y="54" width="169" height="28" as="geometry" />
        </mxCell>
        <mxCell id="3LB6HJnX1jqJlk9QY9SR-151" value="MininumAmount" style="text;align=left;verticalAlign=top;spacingLeft=4;spacingRight=4;overflow=hidden;rotatable=0;points=[[0,0.5],[1,0.5]];portConstraint=eastwest;" vertex="1" parent="3LB6HJnX1jqJlk9QY9SR-135">
          <mxGeometry y="82" width="169" height="28" as="geometry" />
        </mxCell>
        <mxCell id="3LB6HJnX1jqJlk9QY9SR-174" value="Extends" style="endArrow=block;endSize=16;endFill=0;html=1;rounded=0;movable=1;resizable=1;rotatable=1;deletable=1;editable=1;locked=0;connectable=1;entryX=0.5;entryY=0;entryDx=0;entryDy=0;exitX=0.5;exitY=1;exitDx=0;exitDy=0;" edge="1" parent="WIyWlLk6GJQsqaUBKTNV-1" source="3LB6HJnX1jqJlk9QY9SR-32" target="zkfFHV4jXpPFQw0GAbJ--0">
          <mxGeometry x="0.125" width="160" relative="1" as="geometry">
            <mxPoint x="820" y="-900" as="sourcePoint" />
            <mxPoint x="920" y="-670" as="targetPoint" />
            <Array as="points" />
            <mxPoint as="offset" />
          </mxGeometry>
        </mxCell>
        <mxCell id="3LB6HJnX1jqJlk9QY9SR-178" value="Extends" style="endArrow=block;endSize=16;endFill=0;html=1;rounded=0;movable=1;resizable=1;rotatable=1;deletable=1;editable=1;locked=0;connectable=1;entryX=0.75;entryY=0;entryDx=0;entryDy=0;exitX=0;exitY=1;exitDx=0;exitDy=0;" edge="1" parent="WIyWlLk6GJQsqaUBKTNV-1" source="3LB6HJnX1jqJlk9QY9SR-18" target="zkfFHV4jXpPFQw0GAbJ--0">
          <mxGeometry x="0.125" width="160" relative="1" as="geometry">
            <mxPoint x="1090" y="-910" as="sourcePoint" />
            <mxPoint x="1000" y="-390" as="targetPoint" />
            <Array as="points" />
            <mxPoint as="offset" />
          </mxGeometry>
        </mxCell>
        <mxCell id="3LB6HJnX1jqJlk9QY9SR-179" value="Extends" style="endArrow=block;endSize=16;endFill=0;html=1;rounded=0;movable=1;resizable=1;rotatable=1;deletable=1;editable=1;locked=0;connectable=1;entryX=0.904;entryY=-0.011;entryDx=0;entryDy=0;entryPerimeter=0;exitX=0.528;exitY=1.075;exitDx=0;exitDy=0;exitPerimeter=0;" edge="1" parent="WIyWlLk6GJQsqaUBKTNV-1" source="3LB6HJnX1jqJlk9QY9SR-23" target="zkfFHV4jXpPFQw0GAbJ--0">
          <mxGeometry x="0.125" width="160" relative="1" as="geometry">
            <mxPoint x="1260" y="-880" as="sourcePoint" />
            <mxPoint x="1060" y="-370" as="targetPoint" />
            <Array as="points" />
            <mxPoint as="offset" />
          </mxGeometry>
        </mxCell>
        <mxCell id="3LB6HJnX1jqJlk9QY9SR-180" value="Extends" style="endArrow=block;endSize=16;endFill=0;html=1;rounded=0;movable=1;resizable=1;rotatable=1;deletable=1;editable=1;locked=0;connectable=1;entryX=1;entryY=0;entryDx=0;entryDy=0;exitX=0.313;exitY=1.308;exitDx=0;exitDy=0;exitPerimeter=0;" edge="1" parent="WIyWlLk6GJQsqaUBKTNV-1" source="zkfFHV4jXpPFQw0GAbJ--18" target="zkfFHV4jXpPFQw0GAbJ--0">
          <mxGeometry x="0.125" width="160" relative="1" as="geometry">
            <mxPoint x="1180" y="-710" as="sourcePoint" />
            <mxPoint x="1110" y="-370" as="targetPoint" />
            <Array as="points" />
            <mxPoint as="offset" />
          </mxGeometry>
        </mxCell>
        <mxCell id="3LB6HJnX1jqJlk9QY9SR-181" value="Extends" style="endArrow=block;endSize=16;endFill=0;html=1;rounded=0;movable=1;resizable=1;rotatable=1;deletable=1;editable=1;locked=0;connectable=1;entryX=1;entryY=0.023;entryDx=0;entryDy=0;entryPerimeter=0;exitX=0.203;exitY=1.173;exitDx=0;exitDy=0;exitPerimeter=0;" edge="1" parent="WIyWlLk6GJQsqaUBKTNV-1" source="zkfFHV4jXpPFQw0GAbJ--14" target="zkfFHV4jXpPFQw0GAbJ--0">
          <mxGeometry x="0.125" width="160" relative="1" as="geometry">
            <mxPoint x="1400" y="-670" as="sourcePoint" />
            <mxPoint x="1330" y="-330" as="targetPoint" />
            <Array as="points" />
            <mxPoint as="offset" />
          </mxGeometry>
        </mxCell>
        <mxCell id="3LB6HJnX1jqJlk9QY9SR-182" value="" style="endArrow=block;endFill=1;html=1;edgeStyle=orthogonalEdgeStyle;align=left;verticalAlign=top;rounded=0;exitX=1.016;exitY=0.065;exitDx=0;exitDy=0;exitPerimeter=0;entryX=0;entryY=0.5;entryDx=0;entryDy=0;" edge="1" parent="WIyWlLk6GJQsqaUBKTNV-1" source="3LB6HJnX1jqJlk9QY9SR-118" target="3LB6HJnX1jqJlk9QY9SR-0">
          <mxGeometry x="-1" relative="1" as="geometry">
            <mxPoint x="240" y="-640" as="sourcePoint" />
            <mxPoint x="400" y="-640" as="targetPoint" />
            <Array as="points">
              <mxPoint x="360" y="-730" />
              <mxPoint x="360" y="-623" />
            </Array>
          </mxGeometry>
        </mxCell>
        <mxCell id="3LB6HJnX1jqJlk9QY9SR-184" value="" style="endArrow=block;endFill=1;html=1;edgeStyle=orthogonalEdgeStyle;align=left;verticalAlign=top;rounded=0;entryX=0;entryY=0.5;entryDx=0;entryDy=0;exitX=1.002;exitY=0.074;exitDx=0;exitDy=0;exitPerimeter=0;" edge="1" parent="WIyWlLk6GJQsqaUBKTNV-1" source="3LB6HJnX1jqJlk9QY9SR-103" target="zkfFHV4jXpPFQw0GAbJ--2">
          <mxGeometry x="-1" relative="1" as="geometry">
            <mxPoint x="480" y="-570" as="sourcePoint" />
            <mxPoint x="460" y="-760" as="targetPoint" />
            <Array as="points">
              <mxPoint x="340" y="-910" />
              <mxPoint x="390" y="-910" />
              <mxPoint x="390" y="-649" />
            </Array>
          </mxGeometry>
        </mxCell>
        <mxCell id="3LB6HJnX1jqJlk9QY9SR-186" value="" style="endArrow=block;endFill=1;html=1;edgeStyle=orthogonalEdgeStyle;align=left;verticalAlign=top;rounded=0;exitX=1.005;exitY=0.052;exitDx=0;exitDy=0;exitPerimeter=0;entryX=0;entryY=0.5;entryDx=0;entryDy=0;" edge="1" parent="WIyWlLk6GJQsqaUBKTNV-1" source="3LB6HJnX1jqJlk9QY9SR-123" target="3LB6HJnX1jqJlk9QY9SR-2">
          <mxGeometry x="-1" relative="1" as="geometry">
            <mxPoint x="400" y="-1090" as="sourcePoint" />
            <mxPoint x="400" y="-880" as="targetPoint" />
            <Array as="points">
              <mxPoint x="344" y="-545" />
              <mxPoint x="360" y="-545" />
              <mxPoint x="360" y="-595" />
            </Array>
          </mxGeometry>
        </mxCell>
        <mxCell id="3LB6HJnX1jqJlk9QY9SR-192" value="" style="endArrow=block;endFill=1;html=1;edgeStyle=orthogonalEdgeStyle;align=left;verticalAlign=top;rounded=0;entryX=0;entryY=0.5;entryDx=0;entryDy=0;exitX=1;exitY=0.5;exitDx=0;exitDy=0;" edge="1" parent="WIyWlLk6GJQsqaUBKTNV-1" source="3LB6HJnX1jqJlk9QY9SR-47" target="3LB6HJnX1jqJlk9QY9SR-63">
          <mxGeometry x="-1" relative="1" as="geometry">
            <mxPoint x="1041" y="-40" as="sourcePoint" />
            <mxPoint x="1499.9999999999998" y="-380.00000000000045" as="targetPoint" />
            <Array as="points">
              <mxPoint x="940" y="-310" />
              <mxPoint x="940" y="-359" />
            </Array>
          </mxGeometry>
        </mxCell>
        <mxCell id="3LB6HJnX1jqJlk9QY9SR-194" value="" style="endArrow=block;endFill=1;html=1;edgeStyle=orthogonalEdgeStyle;align=left;verticalAlign=top;rounded=0;entryX=0;entryY=0.5;entryDx=0;entryDy=0;exitX=1.005;exitY=0.101;exitDx=0;exitDy=0;exitPerimeter=0;" edge="1" parent="WIyWlLk6GJQsqaUBKTNV-1" source="3LB6HJnX1jqJlk9QY9SR-52" target="3LB6HJnX1jqJlk9QY9SR-71">
          <mxGeometry x="-1" relative="1" as="geometry">
            <mxPoint x="630" y="10" as="sourcePoint" />
            <mxPoint x="790" y="10" as="targetPoint" />
          </mxGeometry>
        </mxCell>
        <mxCell id="3LB6HJnX1jqJlk9QY9SR-198" value="" style="endArrow=block;endFill=1;html=1;edgeStyle=orthogonalEdgeStyle;align=left;verticalAlign=top;rounded=0;entryX=0;entryY=0.5;entryDx=0;entryDy=0;exitX=1;exitY=0.5;exitDx=0;exitDy=0;" edge="1" parent="WIyWlLk6GJQsqaUBKTNV-1" source="zkfFHV4jXpPFQw0GAbJ--1" target="3LB6HJnX1jqJlk9QY9SR-143">
          <mxGeometry x="-1" relative="1" as="geometry">
            <mxPoint x="930" y="-760" as="sourcePoint" />
            <mxPoint x="1090" y="-760" as="targetPoint" />
            <Array as="points">
              <mxPoint x="990" y="-761" />
              <mxPoint x="990" y="-760" />
            </Array>
          </mxGeometry>
        </mxCell>
        <mxCell id="3LB6HJnX1jqJlk9QY9SR-200" value="" style="endArrow=block;endFill=1;html=1;edgeStyle=orthogonalEdgeStyle;align=left;verticalAlign=top;rounded=0;exitX=1.008;exitY=0.876;exitDx=0;exitDy=0;exitPerimeter=0;entryX=0;entryY=0.5;entryDx=0;entryDy=0;" edge="1" parent="WIyWlLk6GJQsqaUBKTNV-1" source="zkfFHV4jXpPFQw0GAbJ--1" target="3LB6HJnX1jqJlk9QY9SR-41">
          <mxGeometry x="-1" relative="1" as="geometry">
            <mxPoint x="1030" y="-510" as="sourcePoint" />
            <mxPoint x="1400" y="-360" as="targetPoint" />
            <Array as="points">
              <mxPoint x="940" y="-751" />
              <mxPoint x="940" y="-385" />
            </Array>
          </mxGeometry>
        </mxCell>
        <mxCell id="3LB6HJnX1jqJlk9QY9SR-202" value="" style="endArrow=block;endFill=1;html=1;edgeStyle=orthogonalEdgeStyle;align=left;verticalAlign=top;rounded=0;entryX=-0.015;entryY=0.306;entryDx=0;entryDy=0;entryPerimeter=0;exitX=1;exitY=0.5;exitDx=0;exitDy=0;" edge="1" parent="WIyWlLk6GJQsqaUBKTNV-1" source="3LB6HJnX1jqJlk9QY9SR-47" target="3LB6HJnX1jqJlk9QY9SR-44">
          <mxGeometry x="-1" relative="1" as="geometry">
            <mxPoint x="940" y="-108.74000000000001" as="sourcePoint" />
            <mxPoint x="1100" y="-108.74000000000001" as="targetPoint" />
            <Array as="points">
              <mxPoint x="940" y="-311" />
              <mxPoint x="940" y="-126" />
            </Array>
          </mxGeometry>
        </mxCell>
        <mxCell id="3LB6HJnX1jqJlk9QY9SR-204" value="" style="endArrow=block;endFill=1;html=1;edgeStyle=orthogonalEdgeStyle;align=left;verticalAlign=top;rounded=0;exitX=1;exitY=0.5;exitDx=0;exitDy=0;entryX=0;entryY=0.5;entryDx=0;entryDy=0;" edge="1" parent="WIyWlLk6GJQsqaUBKTNV-1" source="3LB6HJnX1jqJlk9QY9SR-149" target="3LB6HJnX1jqJlk9QY9SR-148">
          <mxGeometry x="-1" relative="1" as="geometry">
            <mxPoint x="1340.5" y="-410" as="sourcePoint" />
            <mxPoint x="1458.5" y="-410" as="targetPoint" />
          </mxGeometry>
        </mxCell>
      </root>
    </mxGraphModel>
  </diagram>
</mxfile>
